<svg width="25" height="25" viewBox="0 0 25 25" fill="none" xmlns="http://www.w3.org/2000/svg">
<path d="M12.1255 3.27997V3.28192C12.5326 3.28273 12.8918 3.28632 13.2007 3.31512C13.5998 3.35234 13.9782 3.43356 14.3481 3.63153C14.7522 3.84777 14.921 4.33277 14.7505 4.74774L14.7114 4.82977C14.4808 5.26087 13.9443 5.42364 13.5132 5.19305C13.4228 5.14469 13.2982 5.10223 13.0366 5.07782C12.7818 5.05406 12.4589 5.05177 11.979 5.05145C11.4996 5.05178 11.1771 5.05407 10.9224 5.07782C10.6607 5.10223 10.5361 5.14469 10.4458 5.19305C10.3554 5.24144 10.2509 5.32185 10.0854 5.52606C9.90848 5.7445 9.70765 6.04491 9.396 6.51239L8.54932 7.78192C8.38515 8.0281 8.10888 8.17636 7.81299 8.17645C6.29441 8.17645 5.73136 8.18543 5.29736 8.31708C4.24884 8.63523 3.428 9.45604 3.10986 10.5046C2.97821 10.9386 2.96924 11.5017 2.96924 13.0202V15.1032C2.96924 16.8371 2.9709 18.0597 3.08154 18.9958C3.18987 19.9122 3.39147 20.4384 3.71338 20.8307C3.84973 20.9968 4.00231 21.1494 4.16846 21.2858C4.5608 21.6077 5.08692 21.8103 6.00342 21.9186C6.93951 22.0293 8.1621 22.03 9.896 22.03H15.104C16.8376 22.03 18.0605 22.0293 18.9966 21.9186C19.9128 21.8104 20.4392 21.6076 20.8315 21.2858C20.9976 21.1494 21.1502 20.9968 21.2866 20.8307C21.6086 20.4384 21.8111 19.9123 21.9194 18.9958C22.0301 18.0597 22.0317 16.8371 22.0317 15.1032V13.0202C22.0317 11.5016 22.0218 10.9386 21.8901 10.5046C21.7484 10.0368 22.0124 9.5421 22.48 9.40009C22.9479 9.25814 23.4425 9.52298 23.5845 9.99091C23.8115 10.7396 23.8022 11.6305 23.8022 13.0202V15.1032C23.8022 16.7938 23.804 18.1395 23.6782 19.2038C23.5502 20.2874 23.2794 21.1937 22.6558 21.9538C22.4459 22.2095 22.2112 22.4441 21.9556 22.654C21.1954 23.2778 20.2883 23.5484 19.2046 23.6765C18.1403 23.8022 16.7945 23.8015 15.104 23.8015H9.896C8.20544 23.8015 6.8596 23.8022 5.79541 23.6765C4.71172 23.5484 3.8055 23.2778 3.04541 22.654C2.78963 22.4441 2.55514 22.2096 2.34521 21.9538C1.72141 21.1936 1.45085 20.2874 1.32275 19.2038C1.19696 18.1395 1.19775 16.7938 1.19775 15.1032V13.0202C1.19775 11.6306 1.18843 10.7396 1.41553 9.99091C1.90533 8.37625 3.16904 7.11255 4.78369 6.62274C5.44336 6.42265 6.21321 6.40603 7.3374 6.40497L7.92236 5.52997C8.21615 5.08929 8.46862 4.70809 8.70947 4.41083C8.96184 4.09937 9.2398 3.82964 9.60986 3.63153C9.98004 3.43342 10.3591 3.35235 10.7583 3.31512C11.067 3.28635 11.4257 3.28274 11.8325 3.28192V3.27997H12.1255Z" fill="white" stroke="white" stroke-width="0.208333"/>
<path d="M15.1038 15.1033C15.1038 16.5415 13.9379 17.7074 12.4997 17.7074C11.0614 17.7074 9.89551 16.5415 9.89551 15.1033C9.89551 13.665 11.0614 12.4991 12.4997 12.4991C13.9379 12.4991 15.1038 13.665 15.1038 15.1033Z" stroke="white" stroke-width="1.69271" stroke-linecap="round" stroke-linejoin="round"/>
<path d="M19.7909 2.08234L20.0595 2.80841C20.4118 3.76048 20.5879 4.23652 20.9352 4.58378C21.2825 4.93106 21.7586 5.1072 22.7106 5.4595L23.4367 5.72817L22.7106 5.99684C21.7586 6.34914 21.2825 6.5253 20.9352 6.87256C20.5879 7.21982 20.4118 7.69586 20.0595 8.64793L19.7909 9.374L19.5222 8.64793C19.1699 7.69586 18.9938 7.21982 18.6465 6.87256C18.2992 6.5253 17.8231 6.34914 16.8711 5.99684L16.145 5.72817L16.8711 5.4595C17.8231 5.1072 18.2992 4.93106 18.6465 4.58378C18.9938 4.23652 19.1699 3.76048 19.5222 2.80841L19.7909 2.08234Z" stroke="white" stroke-width="1.69271" stroke-linejoin="round"/>
</svg>
