<svg width="27" height="25" viewBox="0 0 27 25" fill="none" xmlns="http://www.w3.org/2000/svg">
<path d="M12 1.84375H9.06597C6.53796 1.84375 5.27395 1.84375 4.30838 2.33573C3.45903 2.7685 2.7685 3.45903 2.33573 4.30838C1.84375 5.27395 1.84375 6.53796 1.84375 9.06597V14.934C1.84375 17.462 1.84375 18.726 2.33573 19.6916C2.7685 20.541 3.45903 21.2315 4.30838 21.6643C5.27395 22.1562 6.53796 22.1562 9.06597 22.1562H15.762C17.5123 22.1562 18.3874 22.1562 19.093 21.9168C20.4221 21.4658 21.4658 20.4221 21.9168 19.093C22.1562 18.3874 22.1562 17.5123 22.1562 15.762C22.1562 14.6595 22.1562 14.1082 21.9925 13.7635C21.6816 13.1091 20.9888 12.7251 20.2692 12.8083C19.89 12.8521 19.4226 13.1443 18.4876 13.7287L15.2601 15.7459C13.985 16.5428 12.3445 16.4412 11.1776 15.493C9.73666 14.3223 7.63395 14.4729 6.37467 15.8372L5.22917 17.0781" stroke="white" stroke-width="1.69271" stroke-linecap="round"/>
<path d="M21.4073 1.85635C21.4147 1.81994 21.4667 1.81994 21.4742 1.85635C21.8604 3.74595 23.3371 5.22267 25.2267 5.60889C25.2631 5.61633 25.2631 5.66835 25.2267 5.67579C23.3371 6.06201 21.8604 7.53872 21.4742 9.42833C21.4667 9.46474 21.4147 9.46474 21.4073 9.42833C21.0211 7.53872 19.5444 6.06201 17.6547 5.67579C17.6183 5.66835 17.6183 5.61633 17.6547 5.60889C19.5444 5.22267 21.0211 3.74595 21.4073 1.85635Z" stroke="white" stroke-width="1.69271"/>
<path d="M10.1562 10.1562V10.2127" stroke="white" stroke-width="2.25694" stroke-linecap="round"/>
</svg>
