<svg width="26" height="26" viewBox="0 0 26 26" fill="none" xmlns="http://www.w3.org/2000/svg">
<path d="M20.0417 2.16797L20.3211 2.92308C20.6874 3.91324 20.8706 4.40832 21.2318 4.76947C21.593 5.13064 22.0881 5.31383 23.0782 5.68022L23.8333 5.95964L23.0782 6.23905C22.0881 6.60544 21.593 6.78865 21.2318 7.1498C20.8706 7.51095 20.6874 8.00603 20.3211 8.99619L20.0417 9.7513L19.7623 8.99619C19.3959 8.00603 19.2127 7.51095 18.8515 7.1498C18.4903 6.78865 17.9952 6.60544 17.0051 6.23905L16.25 5.95964L17.0051 5.68022C17.9952 5.31383 18.4903 5.13064 18.8515 4.76947C19.2127 4.40832 19.3959 3.91324 19.7623 2.92308L20.0417 2.16797Z" stroke="white" stroke-width="1.76042" stroke-linejoin="round"/>
<path d="M17.0091 10.6153V12.4595C17.0091 14.5536 15.3115 16.2511 13.2174 16.2511C11.1234 16.2511 9.42578 14.5536 9.42578 12.4595V8.12614C9.42578 6.03205 11.1234 4.33443 13.2174 4.33437" stroke="white" stroke-width="1.76042" stroke-linecap="round"/>
<path d="M19.8565 14.6948C19.8565 17.0727 17.9288 19.0004 15.5509 19.0004H11.1292C8.61516 19.0004 6.57715 16.9624 6.57715 14.4484" stroke="white" stroke-width="1.76042" stroke-linecap="round"/>
<path d="M13.1738 20.0002L13.1738 22.5414" stroke="white" stroke-width="1.76042" stroke-linecap="round"/>
<path d="M17.272 23.1741H9.07609" stroke="white" stroke-width="1.76042" stroke-linecap="round"/>
</svg>
